<svg id="visual" viewBox="0 0 960 300" width="960" height="300" xmlns="http://www.w3.org/2000/svg" xmlns:xlink="http://www.w3.org/1999/xlink" version="1.1"><rect x="0" y="0" width="960" height="300" fill="#FFF9E9"></rect><path d="M0 183L22.8 184C45.7 185 91.3 187 137 189.8C182.7 192.7 228.3 196.3 274 194.2C319.7 192 365.3 184 411.2 179.2C457 174.3 503 172.7 548.8 172.5C594.7 172.3 640.3 173.7 686 177.3C731.7 181 777.3 187 823 187.5C868.7 188 914.3 183 937.2 180.5L960 178L960 301L937.2 301C914.3 301 868.7 301 823 301C777.3 301 731.7 301 686 301C640.3 301 594.7 301 548.8 301C503 301 457 301 411.2 301C365.3 301 319.7 301 274 301C228.3 301 182.7 301 137 301C91.3 301 45.7 301 22.8 301L0 301Z" fill="#2e5941"></path><path d="M0 223L22.8 222.3C45.7 221.7 91.3 220.3 137 218.2C182.7 216 228.3 213 274 211.3C319.7 209.7 365.3 209.3 411.2 206.8C457 204.3 503 199.7 548.8 197C594.7 194.3 640.3 193.7 686 194C731.7 194.3 777.3 195.7 823 199.2C868.7 202.7 914.3 208.3 937.2 211.2L960 214L960 301L937.2 301C914.3 301 868.7 301 823 301C777.3 301 731.7 301 686 301C640.3 301 594.7 301 548.8 301C503 301 457 301 411.2 301C365.3 301 319.7 301 274 301C228.3 301 182.7 301 137 301C91.3 301 45.7 301 22.8 301L0 301Z" fill="#2a523d"></path><path d="M0 216L22.8 216.3C45.7 216.7 91.3 217.3 137 220.8C182.7 224.3 228.3 230.7 274 231C319.7 231.3 365.3 225.7 411.2 226.7C457 227.7 503 235.3 548.8 238.5C594.7 241.7 640.3 240.3 686 236.5C731.7 232.7 777.3 226.3 823 225.5C868.7 224.7 914.3 229.3 937.2 231.7L960 234L960 301L937.2 301C914.3 301 868.7 301 823 301C777.3 301 731.7 301 686 301C640.3 301 594.7 301 548.8 301C503 301 457 301 411.2 301C365.3 301 319.7 301 274 301C228.3 301 182.7 301 137 301C91.3 301 45.7 301 22.8 301L0 301Z" fill="#264c39"></path><path d="M0 255L22.8 256.7C45.7 258.3 91.3 261.7 137 259.2C182.7 256.7 228.3 248.3 274 245.3C319.7 242.3 365.3 244.7 411.2 247.5C457 250.3 503 253.7 548.8 254.7C594.7 255.7 640.3 254.3 686 252.5C731.7 250.7 777.3 248.3 823 245.7C868.7 243 914.3 240 937.2 238.5L960 237L960 301L937.2 301C914.3 301 868.7 301 823 301C777.3 301 731.7 301 686 301C640.3 301 594.7 301 548.8 301C503 301 457 301 411.2 301C365.3 301 319.7 301 274 301C228.3 301 182.7 301 137 301C91.3 301 45.7 301 22.8 301L0 301Z" fill="#224635"></path><path d="M0 279L22.8 278C45.7 277 91.3 275 137 271C182.7 267 228.3 261 274 260.5C319.7 260 365.3 265 411.2 266.7C457 268.3 503 266.7 548.8 265.5C594.7 264.3 640.3 263.7 686 263C731.7 262.3 777.3 261.7 823 260.2C868.7 258.7 914.3 256.3 937.2 255.2L960 254L960 301L937.2 301C914.3 301 868.7 301 823 301C777.3 301 731.7 301 686 301C640.3 301 594.7 301 548.8 301C503 301 457 301 411.2 301C365.3 301 319.7 301 274 301C228.3 301 182.7 301 137 301C91.3 301 45.7 301 22.8 301L0 301Z" fill="#1e4031"></path></svg>