<svg id="visual" viewBox="0 0 960 90" width="960" height="90" xmlns="http://www.w3.org/2000/svg" xmlns:xlink="http://www.w3.org/1999/xlink" version="1.1"><rect x="0" y="0" width="960" height="90" fill="#FFF9E9"></rect><path d="M0 69L10 66.3C20 63.7 40 58.3 60 56.2C80 54 100 55 120 56.8C140 58.7 160 61.3 180 61C200 60.7 220 57.3 240 55.5C260 53.7 280 53.3 300 52.5C320 51.7 340 50.3 360 53.7C380 57 400 65 420 67.5C440 70 460 67 480 64C500 61 520 58 540 57.5C560 57 580 59 600 60.5C620 62 640 63 660 64.3C680 65.7 700 67.3 720 68.8C740 70.3 760 71.7 780 70.7C800 69.7 820 66.3 840 65.3C860 64.3 880 65.7 900 67.5C920 69.3 940 71.7 950 72.8L960 74L960 0L950 0C940 0 920 0 900 0C880 0 860 0 840 0C820 0 800 0 780 0C760 0 740 0 720 0C700 0 680 0 660 0C640 0 620 0 600 0C580 0 560 0 540 0C520 0 500 0 480 0C460 0 440 0 420 0C400 0 380 0 360 0C340 0 320 0 300 0C280 0 260 0 240 0C220 0 200 0 180 0C160 0 140 0 120 0C100 0 80 0 60 0C40 0 20 0 10 0L0 0Z" fill="#2e5941"></path><path d="M0 46L10 48C20 50 40 54 60 53.5C80 53 100 48 120 46.3C140 44.7 160 46.3 180 47.3C200 48.3 220 48.7 240 48.5C260 48.3 280 47.7 300 47.3C320 47 340 47 360 48C380 49 400 51 420 52.2C440 53.3 460 53.7 480 53.8C500 54 520 54 540 52.3C560 50.7 580 47.3 600 46.7C620 46 640 48 660 49C680 50 700 50 720 50.7C740 51.3 760 52.7 780 51C800 49.3 820 44.7 840 45.8C860 47 880 54 900 55.8C920 57.7 940 54.3 950 52.7L960 51L960 0L950 0C940 0 920 0 900 0C880 0 860 0 840 0C820 0 800 0 780 0C760 0 740 0 720 0C700 0 680 0 660 0C640 0 620 0 600 0C580 0 560 0 540 0C520 0 500 0 480 0C460 0 440 0 420 0C400 0 380 0 360 0C340 0 320 0 300 0C280 0 260 0 240 0C220 0 200 0 180 0C160 0 140 0 120 0C100 0 80 0 60 0C40 0 20 0 10 0L0 0Z" fill="#2a523d"></path><path d="M0 45L10 44.5C20 44 40 43 60 40.3C80 37.7 100 33.3 120 31.5C140 29.7 160 30.3 180 30.7C200 31 220 31 240 32.3C260 33.7 280 36.3 300 36.2C320 36 340 33 360 34C380 35 400 40 420 40C440 40 460 35 480 32.5C500 30 520 30 540 32.8C560 35.7 580 41.3 600 42.2C620 43 640 39 660 37C680 35 700 35 720 35.5C740 36 760 37 780 36.8C800 36.7 820 35.3 840 34.5C860 33.7 880 33.3 900 32.3C920 31.3 940 29.7 950 28.8L960 28L960 0L950 0C940 0 920 0 900 0C880 0 860 0 840 0C820 0 800 0 780 0C760 0 740 0 720 0C700 0 680 0 660 0C640 0 620 0 600 0C580 0 560 0 540 0C520 0 500 0 480 0C460 0 440 0 420 0C400 0 380 0 360 0C340 0 320 0 300 0C280 0 260 0 240 0C220 0 200 0 180 0C160 0 140 0 120 0C100 0 80 0 60 0C40 0 20 0 10 0L0 0Z" fill="#264c39"></path><path d="M0 27L10 28.2C20 29.3 40 31.7 60 32.5C80 33.3 100 32.7 120 32.7C140 32.7 160 33.3 180 33.2C200 33 220 32 240 29.2C260 26.3 280 21.7 300 22C320 22.3 340 27.7 360 30.5C380 33.3 400 33.7 420 31.2C440 28.7 460 23.3 480 21.3C500 19.3 520 20.7 540 22C560 23.3 580 24.7 600 26.2C620 27.7 640 29.3 660 30C680 30.7 700 30.3 720 30C740 29.7 760 29.3 780 29.8C800 30.3 820 31.7 840 31.7C860 31.7 880 30.3 900 29.8C920 29.3 940 29.7 950 29.8L960 30L960 0L950 0C940 0 920 0 900 0C880 0 860 0 840 0C820 0 800 0 780 0C760 0 740 0 720 0C700 0 680 0 660 0C640 0 620 0 600 0C580 0 560 0 540 0C520 0 500 0 480 0C460 0 440 0 420 0C400 0 380 0 360 0C340 0 320 0 300 0C280 0 260 0 240 0C220 0 200 0 180 0C160 0 140 0 120 0C100 0 80 0 60 0C40 0 20 0 10 0L0 0Z" fill="#224635"></path><path d="M0 14L10 12.8C20 11.7 40 9.3 60 8.2C80 7 100 7 120 8.5C140 10 160 13 180 15C200 17 220 18 240 18.2C260 18.3 280 17.7 300 17.7C320 17.7 340 18.3 360 17.3C380 16.3 400 13.7 420 13.5C440 13.3 460 15.7 480 15C500 14.3 520 10.7 540 9.5C560 8.3 580 9.7 600 10C620 10.3 640 9.7 660 9.2C680 8.7 700 8.3 720 10.2C740 12 760 16 780 17.8C800 19.7 820 19.3 840 19.5C860 19.7 880 20.3 900 19.2C920 18 940 15 950 13.5L960 12L960 0L950 0C940 0 920 0 900 0C880 0 860 0 840 0C820 0 800 0 780 0C760 0 740 0 720 0C700 0 680 0 660 0C640 0 620 0 600 0C580 0 560 0 540 0C520 0 500 0 480 0C460 0 440 0 420 0C400 0 380 0 360 0C340 0 320 0 300 0C280 0 260 0 240 0C220 0 200 0 180 0C160 0 140 0 120 0C100 0 80 0 60 0C40 0 20 0 10 0L0 0Z" fill="#1e4031"></path></svg>