<svg id="visual" viewBox="0 0 960 90" width="960" height="90" xmlns="http://www.w3.org/2000/svg" xmlns:xlink="http://www.w3.org/1999/xlink" version="1.1"><rect x="0" y="0" width="960" height="90" fill="#FFF9E9"></rect><path d="M0 60L10 58.7C20 57.3 40 54.7 60 54.3C80 54 100 56 120 58.5C140 61 160 64 180 66.8C200 69.7 220 72.3 240 73.2C260 74 280 73 300 69.5C320 66 340 60 360 56.2C380 52.3 400 50.7 420 53C440 55.3 460 61.7 480 63.2C500 64.7 520 61.3 540 58.2C560 55 580 52 600 52.7C620 53.3 640 57.7 660 61C680 64.3 700 66.7 720 65.2C740 63.7 760 58.3 780 55.7C800 53 820 53 840 54.2C860 55.3 880 57.7 900 59.2C920 60.7 940 61.3 950 61.7L960 62L960 0L950 0C940 0 920 0 900 0C880 0 860 0 840 0C820 0 800 0 780 0C760 0 740 0 720 0C700 0 680 0 660 0C640 0 620 0 600 0C580 0 560 0 540 0C520 0 500 0 480 0C460 0 440 0 420 0C400 0 380 0 360 0C340 0 320 0 300 0C280 0 260 0 240 0C220 0 200 0 180 0C160 0 140 0 120 0C100 0 80 0 60 0C40 0 20 0 10 0L0 0Z" fill="#2e5941"></path><path d="M0 38L10 40.2C20 42.3 40 46.7 60 49C80 51.3 100 51.7 120 52.3C140 53 160 54 180 52.3C200 50.7 220 46.3 240 47.2C260 48 280 54 300 56.7C320 59.3 340 58.7 360 57.2C380 55.7 400 53.3 420 53.8C440 54.3 460 57.7 480 56.8C500 56 520 51 540 47.7C560 44.3 580 42.7 600 41.8C620 41 640 41 660 43.5C680 46 700 51 720 53.2C740 55.3 760 54.7 780 54.7C800 54.7 820 55.3 840 53.5C860 51.7 880 47.3 900 46.3C920 45.3 940 47.7 950 48.8L960 50L960 0L950 0C940 0 920 0 900 0C880 0 860 0 840 0C820 0 800 0 780 0C760 0 740 0 720 0C700 0 680 0 660 0C640 0 620 0 600 0C580 0 560 0 540 0C520 0 500 0 480 0C460 0 440 0 420 0C400 0 380 0 360 0C340 0 320 0 300 0C280 0 260 0 240 0C220 0 200 0 180 0C160 0 140 0 120 0C100 0 80 0 60 0C40 0 20 0 10 0L0 0Z" fill="#2a523d"></path><path d="M0 29L10 31.8C20 34.7 40 40.3 60 40.5C80 40.7 100 35.3 120 32.7C140 30 160 30 180 30.5C200 31 220 32 240 34.2C260 36.3 280 39.7 300 39.2C320 38.7 340 34.3 360 31.8C380 29.3 400 28.7 420 31.7C440 34.7 460 41.3 480 43.3C500 45.3 520 42.7 540 39.3C560 36 580 32 600 30C620 28 640 28 660 30.2C680 32.3 700 36.7 720 39.7C740 42.7 760 44.3 780 45.5C800 46.7 820 47.3 840 45C860 42.7 880 37.3 900 34.5C920 31.7 940 31.3 950 31.2L960 31L960 0L950 0C940 0 920 0 900 0C880 0 860 0 840 0C820 0 800 0 780 0C760 0 740 0 720 0C700 0 680 0 660 0C640 0 620 0 600 0C580 0 560 0 540 0C520 0 500 0 480 0C460 0 440 0 420 0C400 0 380 0 360 0C340 0 320 0 300 0C280 0 260 0 240 0C220 0 200 0 180 0C160 0 140 0 120 0C100 0 80 0 60 0C40 0 20 0 10 0L0 0Z" fill="#264c39"></path><path d="M0 23L10 22.7C20 22.3 40 21.7 60 23C80 24.3 100 27.7 120 27.8C140 28 160 25 180 24C200 23 220 24 240 25.8C260 27.7 280 30.3 300 30C320 29.7 340 26.3 360 23.8C380 21.3 400 19.7 420 21.2C440 22.7 460 27.3 480 28.5C500 29.7 520 27.3 540 27C560 26.7 580 28.3 600 27.5C620 26.7 640 23.3 660 21.5C680 19.7 700 19.3 720 21.3C740 23.3 760 27.7 780 27.5C800 27.3 820 22.7 840 21.5C860 20.3 880 22.7 900 23.8C920 25 940 25 950 25L960 25L960 0L950 0C940 0 920 0 900 0C880 0 860 0 840 0C820 0 800 0 780 0C760 0 740 0 720 0C700 0 680 0 660 0C640 0 620 0 600 0C580 0 560 0 540 0C520 0 500 0 480 0C460 0 440 0 420 0C400 0 380 0 360 0C340 0 320 0 300 0C280 0 260 0 240 0C220 0 200 0 180 0C160 0 140 0 120 0C100 0 80 0 60 0C40 0 20 0 10 0L0 0Z" fill="#224635"></path><path d="M0 11L10 11C20 11 40 11 60 11.3C80 11.7 100 12.3 120 13.8C140 15.3 160 17.7 180 18C200 18.3 220 16.7 240 15.7C260 14.7 280 14.3 300 14.8C320 15.3 340 16.7 360 16.8C380 17 400 16 420 16.3C440 16.7 460 18.3 480 18.7C500 19 520 18 540 16.3C560 14.7 580 12.3 600 12.5C620 12.7 640 15.3 660 15.3C680 15.3 700 12.7 720 11.2C740 9.7 760 9.3 780 9C800 8.7 820 8.3 840 9.8C860 11.3 880 14.7 900 16.8C920 19 940 20 950 20.5L960 21L960 0L950 0C940 0 920 0 900 0C880 0 860 0 840 0C820 0 800 0 780 0C760 0 740 0 720 0C700 0 680 0 660 0C640 0 620 0 600 0C580 0 560 0 540 0C520 0 500 0 480 0C460 0 440 0 420 0C400 0 380 0 360 0C340 0 320 0 300 0C280 0 260 0 240 0C220 0 200 0 180 0C160 0 140 0 120 0C100 0 80 0 60 0C40 0 20 0 10 0L0 0Z" fill="#1e4031"></path></svg>